<svg width="147" height="120" viewBox="0 0 147 120" fill="none" xmlns="http://www.w3.org/2000/svg">
<path d="M120.666 91.423C121.698 72.7245 117.768 53.9602 103.376 40.065C90.3859 27.5231 72.762 25.1597 64.3776 43.6589C60.4085 52.416 61.8412 65.2717 70.7115 70.8408C80.5937 77.0453 88.3225 67.4889 88 60C87.2469 42.5088 57.6781 44.2536 37.5 43.6589C13.6044 42.9547 1.85293 21.698 1.99996 21.6289" stroke="white" stroke-miterlimit="1.5" stroke-linecap="round" stroke-linejoin="round"/>
<path d="M137.351 77.7485C135.253 78.321 133.627 79.6527 131.933 80.9029C126.372 85.0077 121.748 91.107 120.633 97.8446C119.38 90.5722 115.171 81.552 107.601 78.7139" stroke="white" stroke-miterlimit="1.5" stroke-linecap="round" stroke-linejoin="round"/>
</svg>
